<svg width="19768" height="3950.7" xmlns="http://www.w3.org/2000/svg" xmlns:xlink="http://www.w3.org/1999/xlink">
 <title>{\displaystyle {\begin{aligned}Y'&amp;=&amp;0.299\cdot R'&amp;+0.587\cdot G'+0.114\cdot B'\\C_{R}&amp;=&amp;0.713\cdot (R'&amp;-Y')\\C_{B}&amp;=&amp;0.564\cdot (B'&amp;-Y')\end{aligned}}}</title>
 <defs>
  <path d="m66,637q-12,0 -17,0t-10,1t-7,3t-2,6t3,17t9,18q2,1 14,1q48,-3 109,-3q123,0 141,3l10,0q6,-6 6,-9t-2,-18q-4,-13 -10,-19l-12,0q-56,0 -56,-13q0,-5 50,-147t51,-144l3,3q4,4 12,13t21,24t32,37t43,51q92,107 107,126t16,31q0,16 -32,19q-17,0 -17,10q0,2 2,14q3,15 5,18t14,4q2,0 29,-1t79,-2q27,0 56,1t33,1q17,0 17,-9q0,-4 -3,-16t-5,-14q-2,-6 -21,-6q-72,-5 -117,-50q-9,-9 -140,-163l-129,-151l-26,-104q-27,-107 -27,-112q0,-11 68,-11q16,0 21,-1t6,-10q0,-2 -2,-12q-4,-17 -6,-19t-16,-3q-5,0 -42,0t-92,1q-62,0 -94,0t-36,-1q-18,0 -18,8q0,5 3,15q1,3 2,6t1,5t1,4t2,3t3,2t5,1t6,0t9,1t13,0q39,1 51,4t18,13q3,5 29,108l25,103l-123,349q-1,1 -2,2t-2,2t-3,2t-4,2t-5,2t-8,1t-9,1t-13,1t-17,1z" id="E1-MJMATHI-59"/>
  <path d="m79,43q-6,0 -27,6t-22,12q0,7 55,232t61,235q15,32 52,32q20,0 42,-15t22,-44q0,-5 -2,-15q-1,-7 -87,-223t-89,-218t-5,-2z" id="E1-MJMAIN-2032"/>
  <path d="m56,347q0,13 14,20l637,0q15,-8 15,-20q0,-11 -14,-19l-318,-1l-318,0q-16,5 -16,20zm0,-194q0,15 16,20l636,0q14,-10 14,-20q0,-13 -15,-20l-637,0q-14,7 -14,20z" id="E1-MJMAIN-3D"/>
  <path d="m96,585q56,81 153,81q48,0 96,-26t78,-92q37,-83 37,-228q0,-155 -43,-237q-20,-42 -55,-67t-61,-31t-51,-7q-26,0 -52,6t-61,32t-55,67q-43,82 -43,237q0,174 57,265zm225,12q-30,32 -71,32q-42,0 -72,-32q-25,-26 -33,-72t-8,-192q0,-158 8,-208t36,-79q28,-30 69,-30q40,0 68,30q29,30 36,84t8,203q0,145 -8,191t-33,73z" id="E1-MJMAIN-30"/>
  <path d="m78,60q0,24 17,42t43,18q24,0 42,-16t19,-43q0,-25 -17,-43t-43,-18t-43,17t-18,43z" id="E1-MJMAIN-2E"/>
  <path d="m109,429q-27,0 -43,18t-16,44q0,71 53,123t132,52q91,0 152,-56t62,-145q0,-43 -20,-82t-48,-68t-80,-74q-36,-31 -100,-92l-59,-56l76,-1q157,0 167,5q7,2 24,89l0,3l40,0l0,-3q-1,-3 -13,-91t-15,-92l0,-3l-371,0l0,19l0,12q0,7 6,15t30,35q29,32 50,56q9,10 34,37t34,37t29,33t28,34t23,30t21,32t15,29t13,32t7,30t3,33q0,63 -34,109t-97,46q-33,0 -58,-17t-35,-33t-10,-19q0,-1 5,-1q18,0 37,-14t19,-46q0,-25 -16,-42t-45,-18z" id="E1-MJMAIN-32"/>
  <path d="m352,287q-48,-76 -120,-76q-78,0 -128,59t-60,126q-2,16 -2,40l0,8q0,93 69,162q60,60 132,60q2,0 6,0t8,-1l4,0q12,0 25,-2t37,-12t47,-32t43,-59q43,-88 43,-226q0,-140 -60,-237q-35,-56 -84,-87t-104,-32q-61,0 -100,29t-40,86t53,56q22,0 37,-14t15,-39q0,-18 -9,-31t-16,-16t-13,-5l-4,-1q0,-2 7,-6t26,-10t42,-5l6,0q60,0 101,64q39,56 39,194l0,7zm-108,-39q48,0 77,49t30,133q0,78 -8,112q-2,10 -6,20t-14,26t-30,27t-47,10q-38,0 -65,-27q-21,-22 -27,-52t-7,-105q0,-83 5,-112t20,-47q25,-34 72,-34z" id="E1-MJMAIN-39"/>
  <path d="m78,250q0,24 17,42t43,18q24,0 42,-16t19,-43q0,-25 -17,-43t-43,-18t-43,17t-18,43z" id="E1-MJMAIN-22C5"/>
  <path d="m230,637q-27,0 -32,1t-5,11q0,27 11,33q2,1 174,1q172,-1 186,-3q56,-8 94,-28t54,-46t21,-43t6,-34q0,-45 -29,-84t-67,-60t-67,-34t-38,-13l7,-5q67,-38 67,-110q0,-11 -5,-61t-5,-82l0,-9q0,-18 1,-28t11,-18t26,-9q28,0 46,22t26,47q5,14 8,17t15,3q20,0 20,-12q0,-18 -24,-57q-38,-57 -90,-57l-9,0q-61,0 -101,25t-44,78q0,27 15,84t15,73q0,51 -43,74q-15,7 -25,8t-71,2l-69,0l-32,-130q-33,-132 -33,-134q0,-4 1,-5t7,-4t17,-2t33,-2l31,0q6,-8 6,-9t-3,-18q-4,-13 -10,-19l-15,0q-36,2 -131,2q-34,0 -63,0t-46,0t-21,-1q-17,0 -17,9q0,2 3,14q5,19 10,21q4,1 15,1l6,0q27,0 60,3q14,3 19,12q3,4 72,278t69,289q0,7 -57,9zm400,-83q0,32 -21,54t-86,28q-2,0 -23,0t-38,1l-22,0q-47,0 -54,-10q-1,-3 -34,-133t-33,-133q0,-1 69,-1q78,1 104,7q64,10 100,59q16,23 27,60t11,68z" id="E1-MJMATHI-52"/>
  <path d="m56,237t0,13t14,20l299,0l0,150l1,150q10,13 19,13q13,0 20,-15l0,-298l298,0q15,-8 15,-20t-15,-20l-298,0l0,-298q-8,-14 -18,-14l-2,0l-2,0q-12,0 -18,14l0,298l-299,0q-14,7 -14,20l0,-13z" id="E1-MJMAIN-2B"/>
  <path d="m164,157q0,-24 -16,-40t-39,-16l-7,0q46,-79 122,-79q70,0 102,60q19,33 19,128q0,103 -27,139q-26,33 -58,33l-6,0q-78,0 -118,-68q-4,-7 -7,-8t-15,-2q-17,0 -19,6q-2,4 -2,175l0,129q0,50 5,50q2,2 4,2q1,0 21,-8t55,-16t75,-8q71,0 136,28q8,4 13,4q8,0 8,-18l0,-13q-82,-97 -205,-97q-31,0 -56,6l-10,2l0,-172q19,14 30,22t36,16t51,8q81,0 137,-65t56,-154q0,-92 -64,-157t-156,-66q-81,0 -130,54t-49,122q0,24 11,38t23,18t23,4q25,0 41,-17t16,-40z" id="E1-MJMAIN-35"/>
  <path d="m70,417t0,77t54,124t124,48q71,0 126,-42t55,-109q0,-30 -11,-56t-26,-42t-31,-28t-26,-18t-11,-8l14,-9q14,-10 28,-20t16,-11q75,-59 75,-149q0,-79 -58,-137t-150,-59q-90,0 -148,51t-58,126q0,108 129,180l-18,13q-21,13 -27,20q-57,49 -57,126l0,-77zm216,-31l6,4q6,4 9,6t10,7t12,10t11,12t11,13t10,16t9,17t5,20t2,22q0,43 -29,73t-67,38q-7,1 -33,1q-41,0 -77,-26t-37,-65q0,-23 13,-42t26,-29t50,-32q7,-5 11,-7l58,-38zm-36,-365q58,0 100,34t42,82q0,17 -5,32t-12,25t-22,22t-23,18t-29,19t-27,17q-14,9 -30,19t-26,17l-8,5q-6,0 -29,-17t-48,-55t-26,-82q0,-59 43,-97t100,-39z" id="E1-MJMAIN-38"/>
  <path d="m55,458q1,2 17,109l16,107q0,2 20,2l20,0l0,-4q0,-10 15,-17t52,-9t169,-2l121,0l0,-39l-68,-93q-9,-12 -30,-40t-27,-37t-21,-32t-20,-36t-14,-37t-13,-46t-8,-54t-6,-68t-3,-82q0,-14 0,-28t-1,-24l0,-9q-4,-17 -19,-29t-34,-12q-11,0 -21,3t-21,19t-11,40q0,158 97,328q20,32 84,121l46,63l-93,0q-174,0 -183,-6q-6,-3 -11,-24t-10,-43l-3,-21l0,-3l-40,0l0,3z" id="E1-MJMAIN-37"/>
  <path d="m50,252q0,115 67,221t169,168t204,63q90,0 143,-51q9,-10 15,-17t8,-10l1,-3q3,0 27,26q7,6 15,14t16,16t10,11l15,15l6,0q14,0 14,-7q0,-4 -32,-137q-36,-139 -36,-140q-2,-5 -5,-6t-18,-2l-16,0q-6,6 -6,9q0,1 1,7t2,20t1,32q0,71 -32,124t-109,54q-18,0 -39,-3t-53,-13t-61,-28t-63,-48t-58,-71t-47,-102t-31,-134q-2,-18 -2,-39q0,-48 14,-85t36,-57t50,-34t52,-17t45,-4q54,0 99,23t62,59q3,8 15,55t12,53q0,8 -13,10t-60,3l-37,0q-6,6 -6,8t2,19q4,13 10,19l17,0q40,-2 140,-2q40,0 65,0t36,1t12,0q14,0 14,-9q0,-2 -2,-14q-5,-19 -10,-21q-3,-1 -15,-1q-20,0 -41,-3q-7,-3 -10,-9t-14,-51q-9,-33 -15,-56q-25,-102 -28,-105q-2,-2 -5,-2q-10,0 -28,20t-23,31q0,1 -2,0t-6,-5q-74,-69 -200,-69q-121,0 -196,77t-76,197z" id="E1-MJMATHI-47"/>
  <path d="m213,578l-13,-5q-14,-5 -40,-10t-58,-7l-19,0l0,46l19,0q47,2 87,15t56,24t28,22q2,3 12,3q9,0 17,-6l0,-299l1,-300q7,-7 12,-9t24,-4t62,-2l26,0l0,-46l-11,0q-21,3 -159,3q-136,0 -157,-3l-12,0l0,46l26,0q22,0 38,0t25,1t16,3t8,2t6,5t6,4l0,517z" id="E1-MJMAIN-31"/>
  <path d="m462,0q-18,3 -129,3q-116,0 -134,-3l-9,0l0,46l31,0q20,0 27,0t17,2t14,5t7,8q1,2 1,54l0,50l-259,0l0,46l151,231q153,232 155,233q2,2 21,2l18,0l6,-6l0,-460l92,0l0,-46l-92,0l0,-51q0,-41 0,-48t6,-12q8,-7 57,-8l29,0l0,-46l-9,0zm-169,211l0,334l-219,-333l109,-1l110,0z" id="E1-MJMAIN-34"/>
  <path d="m231,637q-27,0 -32,1t-5,11q0,27 11,33q1,1 130,1q259,0 273,-2q63,-10 105,-45t43,-92q0,-64 -58,-115t-133,-69l-10,-3q64,-9 105,-46t42,-92q0,-73 -72,-141t-177,-77q-7,-1 -211,-1q-200,0 -203,2q-4,3 -4,8q0,7 2,14q5,19 10,21q4,1 15,1l6,0q27,0 60,3q14,3 19,12q3,4 72,278t69,289q0,7 -57,9zm418,-93q0,30 -15,56t-49,34q-7,2 -92,3q-20,0 -42,0t-35,-1l-13,0q-15,-1 -19,-10q-2,-4 -32,-120q0,-3 -1,-6l-31,-126l81,0q81,0 93,2q60,10 107,58t48,110zm-54,-315q0,44 -23,73t-60,34q-6,1 -83,1q-118,0 -119,-1q0,-2 -17,-73t-35,-141l-18,-70q0,-4 12,-4t81,-2q89,0 96,1q62,7 114,58t52,124z" id="E1-MJMATHI-42"/>
  <path d="m50,252q0,115 67,221t169,168t204,63q90,0 143,-51q9,-10 15,-17t8,-10l1,-3q3,0 27,26q7,6 15,14t16,16t10,11l15,15l6,0q14,0 14,-7q0,-4 -32,-137q-36,-139 -36,-140q-2,-5 -5,-6t-18,-2l-16,0q-6,6 -6,9q0,1 1,7t2,20t1,32q0,71 -32,124t-109,54q-26,0 -56,-7t-72,-24t-83,-56t-73,-93q-32,-57 -51,-133t-19,-124q0,-114 76,-164q48,-34 118,-34q91,0 162,68t94,148q4,13 6,15t16,2q20,0 20,-9q0,-5 -1,-9q-29,-107 -124,-184t-204,-77q-113,0 -191,75t-78,199z" id="E1-MJMATHI-43"/>
  <path d="m127,463q-27,0 -42,17t-16,44q0,55 48,98t116,43q35,0 44,-1q74,-12 113,-53t40,-89q0,-52 -34,-101t-94,-71l-3,-2q0,-1 9,-3t29,-9t38,-21q82,-53 82,-140q0,-79 -62,-138t-157,-59q-80,0 -138,43t-58,109q0,28 18,45t45,18q28,0 46,-18t18,-45q0,-11 -3,-20t-7,-16t-11,-12t-12,-8t-10,-4t-8,-3l-4,-1q51,-45 124,-45q55,0 83,53q17,33 17,101l0,20q0,95 -64,127q-15,6 -61,7l-42,1l-3,2q-2,3 -2,16q0,18 8,18q28,0 58,5q34,5 62,42t28,112l0,8q0,57 -35,79q-22,14 -47,14q-32,0 -59,-11t-38,-23t-11,-12l3,0q3,-1 8,-2t10,-5t12,-7t10,-11t8,-15t3,-20q0,-22 -14,-39t-45,-18z" id="E1-MJMAIN-33"/>
  <path d="m94,250q0,69 10,131t23,107t37,88t38,67t42,52t33,34t25,21l13,0l4,0q14,0 14,-9q0,-3 -17,-21t-41,-53t-49,-86t-42,-138t-17,-193t17,-192t41,-139t49,-86t42,-53t17,-21q0,-9 -15,-9l-3,0l-13,0l-28,24q-94,85 -137,212t-43,264z" id="E1-MJMAIN-28"/>
  <path d="m84,237t0,13t14,20l581,0q15,-8 15,-20t-15,-20l-581,0q-14,7 -14,20l0,-13z" id="E1-MJMAIN-2212"/>
  <path d="m60,749l4,1q5,0 10,0l12,0l28,-24q94,-85 137,-212t43,-264q0,-68 -10,-131t-23,-107t-37,-88t-38,-67t-41,-51t-32,-33t-23,-19q-3,-3 -4,-4l-12,0q-8,0 -11,0t-5,3t-3,9q1,1 11,13q155,161 155,475t-155,475q-10,12 -11,13q0,8 5,11z" id="E1-MJMAIN-29"/>
  <path d="m42,313q0,163 81,258t180,95q69,0 99,-36t30,-80q0,-25 -14,-40t-39,-15q-23,0 -38,14t-15,39q0,44 47,53q-22,22 -62,25q-71,0 -117,-60q-47,-66 -47,-202l1,-4q5,6 8,13q41,60 107,60l4,0q46,0 81,-19q24,-14 48,-40t39,-57q21,-49 21,-107l0,-18q0,-23 -5,-43q-11,-59 -64,-115t-134,-56q-28,0 -54,8t-56,30t-51,59t-36,97t-14,141zm215,84q-30,0 -52,-17t-34,-45t-17,-57t-6,-62q0,-83 12,-119t38,-58q24,-18 53,-18q51,0 78,38q13,18 18,45t5,105q0,80 -5,107t-18,45q-27,36 -72,36z" id="E1-MJMAIN-36"/>
 </defs>
 <g>
  <title>background</title>
  <rect fill="none" id="canvas_background" height="402" width="582" y="-1" x="-1"/>
 </g>
 <g>
  <title>Layer 1</title>
  <g id="svg_1" transform="matrix(1,0,0,-1,0,0) " stroke-width="0" fill="currentColor" stroke="currentColor">
   <g id="svg_2">
    <g id="svg_3">
     <g id="svg_4">
      <use fill="#ffffff" id="svg_5" y="-914.999756" x="494.986572" xlink:href="#E1-MJMATHI-59"/>
      <use fill="#ffffff" id="svg_6" y="-711.200472" x="1620.913104" xlink:href="#E1-MJMAIN-2032" transform="translate(167,0) scale(0.7070000171661377) "/>
     </g>
     <g id="svg_7">
      <use fill="#ffffff" id="svg_8" y="-2223.999756" x="255.986572" xlink:href="#E1-MJMATHI-43"/>
      <use fill="#ffffff" id="svg_9" y="-3358.685575" x="1136.865021" xlink:href="#E1-MJMATHI-52" transform="translate(167,0) scale(0.7070000171661377) "/>
     </g>
     <g id="svg_10">
      <use fill="#ffffff" id="svg_11" y="-3584.999756" x="255.986572" xlink:href="#E1-MJMATHI-43"/>
      <use fill="#ffffff" id="svg_12" y="-5283.720889" x="1136.865021" xlink:href="#E1-MJMATHI-42" transform="translate(167,0) scale(0.7070000171661377) "/>
     </g>
    </g>
    <g id="svg_13">
     <g id="svg_14">
      <use fill="#ffffff" id="svg_15" y="-914.999756" x="1885.986572" xlink:href="#E1-MJMAIN-3D"/>
     </g>
     <g id="svg_16">
      <use fill="#ffffff" id="svg_17" y="-2223.999756" x="1885.986572" xlink:href="#E1-MJMAIN-3D"/>
     </g>
     <g id="svg_18">
      <use fill="#ffffff" id="svg_19" y="-3584.999756" x="1885.986572" xlink:href="#E1-MJMAIN-3D"/>
     </g>
    </g>
    <g id="svg_20">
     <g id="svg_21">
      <use fill="#ffffff" id="svg_22" x="5053.986572" y="-914.999756" xlink:href="#E1-MJMAIN-30"/>
      <use fill="#ffffff" id="svg_23" y="-914.999756" x="5553.986572" xlink:href="#E1-MJMAIN-2E"/>
      <use fill="#ffffff" id="svg_24" y="-914.999756" x="5832.986572" xlink:href="#E1-MJMAIN-32"/>
      <use fill="#ffffff" id="svg_25" y="-914.999756" x="6332.986572" xlink:href="#E1-MJMAIN-39"/>
      <use fill="#ffffff" id="svg_26" y="-914.999756" x="6833.986572" xlink:href="#E1-MJMAIN-39"/>
      <use fill="#ffffff" id="svg_27" y="-914.999756" x="7555.986572" xlink:href="#E1-MJMAIN-22C5"/>
      <g id="svg_28">
       <use fill="#ffffff" id="svg_29" y="-914.999756" x="8056.986572" xlink:href="#E1-MJMATHI-52"/>
       <use fill="#ffffff" id="svg_30" y="-711.200472" x="12233.811005" xlink:href="#E1-MJMAIN-2032" transform="translate(167,0) scale(0.7070000171661377) "/>
      </g>
     </g>
     <g id="svg_31">
      <use fill="#ffffff" id="svg_32" x="4664.986572" y="-2223.999756" xlink:href="#E1-MJMAIN-30"/>
      <use fill="#ffffff" id="svg_33" y="-2223.999756" x="5164.986572" xlink:href="#E1-MJMAIN-2E"/>
      <use fill="#ffffff" id="svg_34" y="-2223.999756" x="5443.986572" xlink:href="#E1-MJMAIN-37"/>
      <use fill="#ffffff" id="svg_35" y="-2223.999756" x="5943.986572" xlink:href="#E1-MJMAIN-31"/>
      <use fill="#ffffff" id="svg_36" y="-2223.999756" x="6444.986572" xlink:href="#E1-MJMAIN-33"/>
      <use fill="#ffffff" id="svg_37" y="-2223.999756" x="7166.986572" xlink:href="#E1-MJMAIN-22C5"/>
      <use fill="#ffffff" id="svg_38" y="-2223.999756" x="7667.986572" xlink:href="#E1-MJMAIN-28"/>
      <g id="svg_39">
       <use fill="#ffffff" id="svg_40" y="-2223.999756" x="8056.986572" xlink:href="#E1-MJMATHI-52"/>
       <use fill="#ffffff" id="svg_41" y="-2562.685575" x="12233.811005" xlink:href="#E1-MJMAIN-2032" transform="translate(167,0) scale(0.7070000171661377) "/>
      </g>
     </g>
     <g id="svg_42">
      <use fill="#ffffff" id="svg_43" x="4664.986572" y="-3584.999756" xlink:href="#E1-MJMAIN-30"/>
      <use fill="#ffffff" id="svg_44" y="-3584.999756" x="5164.986572" xlink:href="#E1-MJMAIN-2E"/>
      <use fill="#ffffff" id="svg_45" y="-3584.999756" x="5443.986572" xlink:href="#E1-MJMAIN-35"/>
      <use fill="#ffffff" id="svg_46" y="-3584.999756" x="5943.986572" xlink:href="#E1-MJMAIN-36"/>
      <use fill="#ffffff" id="svg_47" y="-3584.999756" x="6444.986572" xlink:href="#E1-MJMAIN-34"/>
      <use fill="#ffffff" id="svg_48" y="-3584.999756" x="7166.986572" xlink:href="#E1-MJMAIN-22C5"/>
      <use fill="#ffffff" id="svg_49" y="-3584.999756" x="7667.986572" xlink:href="#E1-MJMAIN-28"/>
      <g id="svg_50">
       <use fill="#ffffff" id="svg_51" y="-3584.999756" x="8056.986572" xlink:href="#E1-MJMATHI-42"/>
       <use fill="#ffffff" id="svg_52" y="-4487.720889" x="12233.811005" xlink:href="#E1-MJMAIN-2032" transform="translate(167,0) scale(0.7070000171661377) "/>
      </g>
     </g>
    </g>
    <g id="svg_53">
     <g id="svg_54">
      <use fill="#ffffff" id="svg_55" y="-914.999756" x="9333.986572" xlink:href="#E1-MJMAIN-2B"/>
      <g id="svg_56">
       <use fill="#ffffff" id="svg_57" x="10333.986572" y="-914.999756" xlink:href="#E1-MJMAIN-30"/>
       <use fill="#ffffff" id="svg_58" y="-914.999756" x="10833.986572" xlink:href="#E1-MJMAIN-2E"/>
       <use fill="#ffffff" id="svg_59" y="-914.999756" x="11112.986572" xlink:href="#E1-MJMAIN-35"/>
       <use fill="#ffffff" id="svg_60" y="-914.999756" x="11612.986572" xlink:href="#E1-MJMAIN-38"/>
       <use fill="#ffffff" id="svg_61" y="-914.999756" x="12113.986572" xlink:href="#E1-MJMAIN-37"/>
      </g>
      <use fill="#ffffff" id="svg_62" y="-914.999756" x="12836.986572" xlink:href="#E1-MJMAIN-22C5"/>
      <g id="svg_63">
       <use fill="#ffffff" id="svg_64" y="-914.999756" x="13337.986572" xlink:href="#E1-MJMATHI-47"/>
       <use fill="#ffffff" id="svg_65" y="-711.200472" x="19741.40064" xlink:href="#E1-MJMAIN-2032" transform="translate(167,0) scale(0.7070000171661377) "/>
      </g>
      <use fill="#ffffff" id="svg_66" y="-914.999756" x="14640.986572" xlink:href="#E1-MJMAIN-2B"/>
      <g id="svg_67">
       <use fill="#ffffff" id="svg_68" x="15641.986572" y="-914.999756" xlink:href="#E1-MJMAIN-30"/>
       <use fill="#ffffff" id="svg_69" y="-914.999756" x="16141.986572" xlink:href="#E1-MJMAIN-2E"/>
       <use fill="#ffffff" id="svg_70" y="-914.999756" x="16420.986572" xlink:href="#E1-MJMAIN-31"/>
       <use fill="#ffffff" id="svg_71" y="-914.999756" x="16920.986572" xlink:href="#E1-MJMAIN-31"/>
       <use fill="#ffffff" id="svg_72" y="-914.999756" x="17421.986572" xlink:href="#E1-MJMAIN-34"/>
      </g>
      <use fill="#ffffff" id="svg_73" y="-914.999756" x="18144.986572" xlink:href="#E1-MJMAIN-22C5"/>
      <g id="svg_74">
       <use fill="#ffffff" id="svg_75" y="-914.999756" x="18645.986572" xlink:href="#E1-MJMATHI-42"/>
       <use fill="#ffffff" id="svg_76" y="-711.200472" x="27211.179807" xlink:href="#E1-MJMAIN-2032" transform="translate(167,0) scale(0.7070000171661377) "/>
      </g>
     </g>
     <g id="svg_77">
      <use fill="#ffffff" id="svg_78" y="-2223.999756" x="9333.986572" xlink:href="#E1-MJMAIN-2212"/>
      <g id="svg_79">
       <use fill="#ffffff" id="svg_80" y="-2223.999756" x="10333.986572" xlink:href="#E1-MJMATHI-59"/>
       <use fill="#ffffff" id="svg_81" y="-2562.685575" x="15537.461564" xlink:href="#E1-MJMAIN-2032" transform="translate(167,0) scale(0.7070000171661377) "/>
      </g>
      <use fill="#ffffff" id="svg_82" y="-2223.999756" x="11446.986572" xlink:href="#E1-MJMAIN-29"/>
     </g>
     <g id="svg_83">
      <use fill="#ffffff" id="svg_84" y="-3584.999756" x="9333.986572" xlink:href="#E1-MJMAIN-2212"/>
      <g id="svg_85">
       <use fill="#ffffff" id="svg_86" y="-3584.999756" x="10333.986572" xlink:href="#E1-MJMATHI-59"/>
       <use fill="#ffffff" id="svg_87" y="-4487.720889" x="15537.461564" xlink:href="#E1-MJMAIN-2032" transform="translate(167,0) scale(0.7070000171661377) "/>
      </g>
      <use fill="#ffffff" id="svg_88" y="-3584.999756" x="11446.986572" xlink:href="#E1-MJMAIN-29"/>
     </g>
    </g>
   </g>
  </g>
 </g>
</svg>