<?xml version="1.0" encoding="UTF-8" standalone="no"?>
<svg
   xmlns:osb="http://www.openswatchbook.org/uri/2009/osb"
   xmlns:dc="http://purl.org/dc/elements/1.1/"
   xmlns:cc="http://creativecommons.org/ns#"
   xmlns:rdf="http://www.w3.org/1999/02/22-rdf-syntax-ns#"
   xmlns:svg="http://www.w3.org/2000/svg"
   xmlns="http://www.w3.org/2000/svg"
   xmlns:sodipodi="http://sodipodi.sourceforge.net/DTD/sodipodi-0.dtd"
   xmlns:inkscape="http://www.inkscape.org/namespaces/inkscape"
   viewBox="0 0 21.333332 21.333332"
   height="21.333332"
   width="21.333332"
   xml:space="preserve"
   id="svg2"
   version="1.1"
   sodipodi:docname="favicon.svg"
   inkscape:version="1.0.1 (3bc2e813f5, 2020-09-07)"><sodipodi:namedview
     pagecolor="#ffffff"
     bordercolor="#666666"
     borderopacity="1"
     objecttolerance="10"
     gridtolerance="10"
     guidetolerance="10"
     inkscape:pageopacity="0"
     inkscape:pageshadow="2"
     inkscape:window-width="1920"
     inkscape:window-height="1006"
     id="namedview140"
     showgrid="false"
     inkscape:zoom="27.01369"
     inkscape:cx="7.3169512"
     inkscape:cy="12.066205"
     inkscape:window-x="0"
     inkscape:window-y="0"
     inkscape:window-maximized="1"
     inkscape:current-layer="g10"
     inkscape:document-rotation="0" /><metadata
     id="metadata8"><rdf:RDF><cc:Work
         rdf:about=""><dc:format>image/svg+xml</dc:format><dc:type
           rdf:resource="http://purl.org/dc/dcmitype/StillImage" /><dc:title></dc:title></cc:Work></rdf:RDF></metadata><defs
     id="defs6"><linearGradient
       id="linearGradient3960"
       osb:paint="solid"><stop
         style="stop-color:#000000;stop-opacity:1;"
         offset="0"
         id="stop3958" /></linearGradient><linearGradient
       id="linearGradient2012"
       osb:paint="solid"><stop
         style="stop-color:#000000;stop-opacity:1;"
         offset="0"
         id="stop2010" /></linearGradient><clipPath
       id="clipPath18"
       clipPathUnits="userSpaceOnUse"><path
         id="path16"
         d="M 0,16 H 16 V 0 H 0 Z" /></clipPath></defs><g
     transform="matrix(1.3333333,0,0,-1.3333333,0,21.333333)"
     id="g10"><g
       id="g12"
       style="stroke:#000000;stroke-opacity:1;stroke-width:0.075;stroke-miterlimit:4;stroke-dasharray:none;paint-order:markers stroke fill"><g
         clip-path="url(#clipPath18)"
         id="g14"
         style="stroke:#000000;stroke-opacity:1;stroke-width:0.075;stroke-miterlimit:4;stroke-dasharray:none;paint-order:markers stroke fill"><g
           transform="translate(8.437,1.1113)"
           id="g20"
           style="stroke:#000000;stroke-opacity:1;stroke-width:0.075;stroke-miterlimit:4;stroke-dasharray:none;paint-order:markers stroke fill"><path
             id="path22"
             style="fill:#ffd700;fill-opacity:1;fill-rule:nonzero;stroke:#000000;stroke-opacity:1;stroke-width:0.075;stroke-miterlimit:4;stroke-dasharray:none;paint-order:markers stroke fill"
             d="M 0,0 C 0.112,-0.025 0.255,-0.037 0.416,-0.008 0.547,0.016 0.705,0.069 0.852,0.18 1.079,0.348 1.349,0.742 1.234,1.212 1.146,1.569 0.704,2.017 0.163,1.89 -0.059,1.837 -0.289,1.679 -0.4,1.43 -0.494,1.22 -0.498,0.938 -0.356,0.71 -0.211,0.479 0.07,0.346 0.324,0.37 0.41,0.378 0.489,0.399 0.558,0.433 0.601,0.452 0.638,0.475 0.674,0.496 0.786,0.563 0.68,0.451 0.581,0.376 0.507,0.319 0.523,0.337 0.504,0.317 0.473,0.277 0.469,0.305 0.518,0.3 0.543,0.3 0.541,0.328 0.551,0.292 0.559,0.255 0.514,0.255 0.505,0.25 0.459,0.234 0.408,0.221 0.36,0.213 0.021,0.157 -0.315,0.314 -0.508,0.589 -0.57,0.678 -0.603,0.754 -0.624,0.811 c -0.015,0.043 -0.033,0.1 -0.044,0.175 -0.095,0.592 0.43,1.155 0.99,1.198 C 0.388,2.188 0.711,2.151 0.816,2.113 0.963,2.059 1.099,1.976 1.213,1.871 1.384,1.716 1.5,1.526 1.568,1.321 1.61,1.195 1.631,1.066 1.635,0.939 1.646,0.576 1.515,0.251 1.316,0.001 1.242,-0.092 1.163,-0.171 1.076,-0.24 1.236,-0.111 0.933,-0.343 0.882,-0.372 0.634,-0.516 0.375,-0.58 0.122,-0.593 c -0.03,-0.001 -0.173,0 -0.228,0.004 -0.12,0.011 -0.235,0.032 -0.346,0.064 -0.22,0.061 -0.411,0.158 -0.581,0.273 -0.068,0.046 -0.13,0.095 -0.189,0.146 0.098,-0.084 -0.094,0.086 -0.112,0.105 -0.131,0.131 -0.236,0.269 -0.325,0.409 -0.044,0.071 -0.083,0.14 -0.119,0.21 -0.012,0.022 -0.081,0.176 -0.09,0.194 -0.098,0.246 -0.153,0.481 -0.188,0.703 -0.007,0.045 -0.012,0.089 -0.017,0.133 0.008,-0.077 -0.006,0.072 -0.006,0.088 -0.007,0.124 -0.004,0.244 0.004,0.361 0.015,0.244 0.04,0.341 0.092,0.584 0.05,0.232 0.114,0.458 0.185,0.677 0.139,0.434 0.279,0.746 0.485,1.151 0.404,0.799 0.899,1.547 1.364,2.311 0.434,0.715 0.856,1.45 1.116,2.249 0.201,0.613 0.324,1.252 0.374,1.895 0.09,1.163 -0.127,2.515 -1.088,3.289 -1.084,0.874 -2.869,0.852 -3.899,-0.1 -0.519,-0.479 -0.712,-1.237 -0.429,-1.892 0.114,-0.265 0.329,-0.476 0.596,-0.584 0.316,-0.13 0.652,-0.043 0.947,0.094 0.002,10e-4 0,0.004 -0.001,0.003 -0.388,-0.174 -0.837,-0.16 -1.159,0.137 -0.28,0.259 -0.361,0.664 -0.327,1.03 0.077,0.831 0.832,1.337 1.579,1.519 0.681,0.166 1.414,0.075 2.022,-0.28 C 0.25,13.905 0.573,13.454 0.737,12.952 0.919,12.395 0.927,11.82 0.866,11.226 0.84,10.975 0.778,10.651 0.704,10.355 0.628,10.052 0.533,9.754 0.422,9.462 0.397,9.394 0.37,9.327 0.342,9.259 0.34,9.253 0.338,9.249 0.336,9.245 0.334,9.241 0.332,9.235 0.329,9.228 0.315,9.196 0.301,9.163 0.286,9.131 0.203,8.943 0.112,8.758 0.019,8.575 -0.183,8.177 -0.412,7.793 -0.646,7.414 -1.119,6.653 -1.625,5.914 -2.057,5.128 -2.492,4.335 -2.847,3.483 -2.987,2.586 -3.121,1.737 -2.961,0.892 -2.471,0.169 -1.99,-0.537 -1.202,-1.178 -0.042,-1.105 0.517,-1.071 1.316,-0.799 1.74,-0.023 2.062,0.567 2.188,2.06 0.785,2.403 0.45,2.484 0.053,2.447 -0.283,2.243 -0.568,2.068 -0.812,1.764 -0.884,1.39 -0.943,1.092 -0.89,0.741 -0.685,0.454 -0.536,0.246 -0.299,0.064 0,0" /></g><g
           transform="translate(7.2144,10.3643)"
           id="g24"
           style="stroke:#000000;stroke-opacity:1;stroke-width:0.075;stroke-miterlimit:4;stroke-dasharray:none;paint-order:markers stroke fill"><path
             id="path26"
             style="fill:#ffd700;fill-opacity:1;fill-rule:nonzero;stroke:#000000;stroke-opacity:1;stroke-width:0.075;stroke-miterlimit:4;stroke-dasharray:none;paint-order:markers stroke fill"
             d="M 0,0 C -0.117,0.46 -0.46,1.003 -1.085,1.249 -1.371,1.361 -1.723,1.404 -2.073,1.308 -2.375,1.224 -2.678,1.031 -2.873,0.727 -3.021,0.496 -3.131,0.113 -2.985,-0.278 c 0.117,-0.314 0.456,-0.648 0.888,-0.672 0.271,-0.014 0.765,0.195 0.862,0.639 0.038,0.177 0.007,0.368 -0.073,0.516 C -1.369,0.316 -1.451,0.399 -1.529,0.458 -1.592,0.507 -1.743,0.6 -1.953,0.574 -2.088,0.558 -2.295,0.471 -2.407,0.269 c -0.071,-0.131 -0.107,-0.331 -0.012,-0.52 0.053,-0.106 0.159,-0.241 0.368,-0.28 0.089,-0.017 0.202,-0.01 0.32,0.031 0.033,0.013 0.078,0.027 0.161,0.068 0.086,0.044 0.314,0.351 0,0.659 0.218,-0.187 0.198,-0.558 0.036,-0.754 -0.34,-0.41 -0.903,-0.207 -1.117,0.063 -0.262,0.329 -0.218,0.8 -0.029,1.095 0.306,0.477 0.866,0.569 1.25,0.488 0.417,-0.088 0.728,-0.353 0.923,-0.655 0.476,-0.739 0.257,-1.529 0.035,-2.113 -0.212,-0.559 -0.361,-1.052 -0.516,-1.523 -0.303,-0.913 -0.623,-1.8 -0.742,-2.759 0,-0.002 0.003,-0.003 0.003,-0.001 0.172,0.991 0.684,1.898 1.089,2.805 0.095,0.212 0.184,0.427 0.27,0.646 0.097,0.245 0.167,0.503 0.251,0.771 C 0.044,-1.191 0.158,-0.623 0,0" /></g><g
           transform="translate(10.126,4.1455)"
           id="g28"
           style="stroke:#000000;stroke-opacity:1;stroke-width:0.075;stroke-miterlimit:4;stroke-dasharray:none;paint-order:markers stroke fill"><path
             id="path30"
             style="fill:#ffd700;fill-opacity:1;fill-rule:nonzero;stroke:#000000;stroke-opacity:1;stroke-width:0.075;stroke-miterlimit:4;stroke-dasharray:none;paint-order:markers stroke fill"
             d="M 0,0 C 1.204,-0.316 1.614,1.059 1.413,1.681 1.13,2.547 0.162,2.86 -0.476,2.803 -1.009,2.755 -1.43,2.543 -1.761,2.328 -2.067,2.128 -2.32,1.905 -2.531,1.67 -2.957,1.193 -3.185,0.625 -3.353,0.03 -3.354,0.028 -3.351,0.027 -3.35,0.029 c 0.213,0.743 0.691,1.436 1.388,1.984 0.2,0.158 0.457,0.337 0.791,0.482 0.367,0.159 0.859,0.277 1.383,0.143 C 0.752,2.497 1.333,2.002 1.366,1.311 1.396,0.668 0.671,-0.146 -0.086,0.157 -0.516,0.334 -0.792,0.928 -0.542,1.36 -0.43,1.553 -0.221,1.699 0.011,1.722 0.215,1.742 0.43,1.66 0.563,1.509 0.568,1.498 0.617,1.444 0.646,1.277 0.669,1.155 0.611,0.788 0.326,0.722 0.229,0.699 0.124,0.722 0.059,0.772 0.026,0.798 0.018,0.835 0.027,0.832 0.067,0.824 0.132,0.785 0.223,0.798 0.353,0.816 0.483,0.952 0.483,1.111 0.48,1.302 0.295,1.467 0.114,1.475 -0.093,1.483 -0.271,1.326 -0.327,1.164 -0.514,0.624 0.127,0.409 0.38,0.48 0.563,0.532 0.705,0.663 0.784,0.815 0.878,1.001 0.881,1.224 0.809,1.407 0.562,2.029 -0.096,1.919 -0.304,1.817 -0.613,1.667 -0.681,1.464 -0.722,1.354 -0.759,1.254 -0.776,1.158 -0.783,1.063 -0.791,0.935 -0.773,0.804 -0.732,0.678 -0.618,0.341 -0.311,0.083 0,0" /></g><g
           transform="translate(6.3647,6.376)"
           id="g32"
           style="stroke:#000000;stroke-opacity:1;stroke-width:0.075;stroke-miterlimit:4;stroke-dasharray:none;paint-order:markers stroke fill"><path
             id="path34"
             style="fill:#ffd700;fill-opacity:1;fill-rule:nonzero;stroke:#000000;stroke-opacity:1;stroke-width:0.075;stroke-miterlimit:4;stroke-dasharray:none;paint-order:markers stroke fill"
             d="M 0,0 C 0.381,0.638 0.718,1.286 1.094,1.929 1.58,2.761 2.031,3.686 2.175,4.644 2.317,5.588 2.413,6.832 1.632,7.558 1.048,8.101 0.13,7.975 -0.16,7.192 -0.328,6.742 -0.304,6.136 0.267,5.999 0.091,6.203 0.166,6.545 0.458,6.55 0.616,6.553 0.654,6.452 0.824,6.527 0.927,6.573 1.036,6.693 1.078,6.793 1.026,6.724 1.002,6.642 1.011,6.554 1.185,6.529 1.369,6.661 1.54,6.579 1.667,6.518 1.794,6.318 1.672,6.204 1.527,6.37 1.186,6.441 0.993,6.32 1.236,6.282 1.106,5.909 1.169,5.791 1.099,5.947 1.013,5.823 1.013,5.708 1.013,5.642 1.125,5.504 1.172,5.457 1.342,5.288 1.527,5.239 1.649,5.016 1.859,4.628 1.814,4.194 1.81,3.799 1.81,4.008 1.833,4.192 1.626,4.308 1.6,4.252 1.573,4.254 1.585,4.17 1.656,4.329 1.405,4.705 1.219,4.747 0.834,4.833 1.116,4.447 1.197,4.284 1.457,3.763 1.382,3.316 1.374,2.755 c 0,0.1 0.029,0.46 -0.119,0.493 C 1.098,3.282 1.187,2.927 1.191,2.84 1.208,2.5 1.003,2.248 0.985,1.931 1.003,2.039 1.042,2.167 0.896,2.149 0.909,1.789 0.671,1.363 0.509,1.048 0.333,0.707 0.161,0.362 -0.023,0.022 Z" /></g><g
           transform="translate(7.5786,5.8262)"
           id="g36"
           style="stroke:#000000;stroke-opacity:1;stroke-width:0.075;stroke-miterlimit:4;stroke-dasharray:none;paint-order:markers stroke fill"><path
             id="path38"
             style="fill:#ffd700;fill-opacity:1;fill-rule:nonzero;stroke:#000000;stroke-opacity:1;stroke-width:0.075;stroke-miterlimit:4;stroke-dasharray:none;paint-order:markers stroke fill"
             d="M 0,0 C 0.577,0.701 1.201,1.224 2.079,1.518 2.97,1.815 4.04,1.762 4.656,2.56 5.355,3.465 5.424,5.079 4.061,5.315 4.423,5.1 4.074,4.789 4.013,4.553 3.957,4.329 4.325,3.895 4.081,3.735 4.037,4.007 3.977,4.339 3.713,4.503 3.834,4.279 3.48,4.076 3.596,3.845 3.581,3.979 3.476,4.027 3.436,3.894 3.408,3.801 3.507,3.676 3.544,3.596 3.641,3.389 3.709,3.206 3.71,2.978 3.712,2.573 3.382,2.225 3.032,2.037 3.203,2.109 3.746,2.607 3.368,2.723 3.352,2.687 3.333,2.678 3.325,2.636 3.505,2.808 3.383,3.471 3.049,3.409 3.013,2.972 3.143,2.672 2.78,2.288 2.871,2.371 3.011,2.748 2.834,2.835 2.679,2.913 2.677,2.58 2.639,2.474 2.522,2.145 2.316,1.947 2.018,1.773 2.26,2.03 2.458,2.137 2.497,2.52 2.537,2.915 2.545,3.135 2.809,3.455 2.3,3.648 1.874,2.94 1.855,2.526 1.897,2.698 1.773,2.781 1.654,2.652 1.578,2.57 1.588,2.307 1.558,2.199 1.52,2.063 1.466,1.913 1.392,1.786 1.317,1.661 1.164,1.553 1.127,1.422 1.18,1.503 1.293,1.791 1.094,1.678 1.007,1.628 0.938,1.398 0.887,1.312 0.741,1.069 0.531,0.884 0.349,0.659 -0.031,0.192 -0.269,-0.293 -0.527,-0.824 Z" /></g><g
           transform="translate(5.5859,1.7725)"
           id="g40"
           style="stroke:#000000;stroke-opacity:1;stroke-width:0.075;stroke-miterlimit:4;stroke-dasharray:none;paint-order:markers stroke fill"><path
             id="path42"
             style="fill:#ffd700;fill-opacity:1;fill-rule:nonzero;stroke:#000000;stroke-opacity:1;stroke-width:0.075;stroke-miterlimit:4;stroke-dasharray:none;paint-order:markers stroke fill"
             d="M 0,0 C -0.204,0.244 -0.261,0.769 -0.275,1.076 -0.296,1.529 -0.265,1.944 -0.367,2.383 -0.582,3.302 -1.298,3.825 -2.268,3.521 -2.891,3.326 -3.325,2.663 -3.028,2.022 -3.039,2.249 -2.737,2.028 -2.61,2.06 -2.453,2.1 -2.378,2.301 -2.202,2.287 -2.208,2.094 -2.487,2.051 -2.474,1.783 -2.431,1.914 -2.169,1.778 -2.065,1.961 -2.089,1.915 -2.071,1.884 -2.08,1.836 -1.739,1.66 -1.403,3.021 -0.81,2.473 -0.922,2.474 -1.06,2.495 -1.151,2.434 -1.244,2.371 -1.312,2.224 -1.147,2.285 -1.277,2.314 -1.479,2.193 -1.438,2.043 -1.407,1.926 -1.149,1.868 -1.059,1.826 -0.77,1.692 -0.584,1.51 -0.527,1.233 -0.532,1.43 -0.799,1.489 -0.958,1.462 -0.989,1.214 -0.606,0.931 -0.481,0.732 -0.363,0.547 -0.244,0.1 -0.046,0.022 Z" /></g><g
           transform="translate(6.021,6.6738)"
           id="g44"
           style="stroke:#000000;stroke-opacity:1;stroke-width:0.075;stroke-miterlimit:4;stroke-dasharray:none;paint-order:markers stroke fill"><path
             id="path46"
             style="fill:#ffd700;fill-opacity:1;fill-rule:nonzero;stroke:#000000;stroke-opacity:1;stroke-width:0.075;stroke-miterlimit:4;stroke-dasharray:none;paint-order:markers stroke fill"
             d="M 0,0 C 0.025,0.282 0.177,0.595 0.253,0.87 0.334,1.166 0.42,1.462 0.482,1.764 0.573,2.209 0.452,3.061 -0.158,3.051 -0.01,3.061 -0.223,2.5 -0.043,2.345 -0.203,2.467 -0.193,2.234 -0.166,2.147 -0.129,2.027 -0.01,1.919 0.041,1.804 0.162,1.531 0.129,1.279 0.138,0.992 0.156,1.09 0.093,1.332 -0.023,1.192 -0.096,1.105 0.009,0.919 0.023,0.824 0.06,0.58 0.041,0.255 0,0.022 Z" /></g><g
           transform="translate(9.2715,9.1426)"
           id="g48"
           style="stroke:#000000;stroke-opacity:1;stroke-width:0.075;stroke-miterlimit:4;stroke-dasharray:none;paint-order:markers stroke fill"><path
             id="path50"
             style="fill:#ffd700;fill-opacity:1;fill-rule:nonzero;stroke:#000000;stroke-opacity:1;stroke-width:0.075;stroke-miterlimit:4;stroke-dasharray:none;paint-order:markers stroke fill"
             d="M 0,0 C 0.181,0.374 0.383,0.726 0.521,1.121 0.662,1.529 0.783,1.948 0.968,2.336 1.309,3.057 2.166,3.533 2.925,3.16 2.571,3.18 2.604,2.85 2.468,2.634 2.287,2.347 2.05,2.531 1.829,2.36 1.95,2.262 2.09,2.376 2.189,2.174 1.983,2.264 2,1.974 1.854,1.924 1.678,1.863 1.43,2.062 1.285,1.929 1.393,1.942 1.542,1.886 1.472,1.757 1.44,1.7 1.235,1.676 1.168,1.649 0.954,1.563 0.805,1.421 0.69,1.223 0.76,1.335 0.917,1.458 1.01,1.306 0.926,1.16 0.77,1.016 0.649,0.902 0.67,0.912 0.716,0.929 0.729,0.937 0.729,0.772 0.459,0.55 0.359,0.418 0.229,0.245 0.007,0.057 -0.092,-0.137 Z" /></g><g
           transform="translate(5.5654,5.6748)"
           id="g52"
           style="stroke:#000000;stroke-opacity:1;stroke-width:0.075;stroke-miterlimit:4;stroke-dasharray:none;paint-order:markers stroke fill"><path
             id="path54"
             style="fill:#ffd700;fill-opacity:1;fill-rule:nonzero;stroke:#000000;stroke-opacity:1;stroke-width:0.075;stroke-miterlimit:4;stroke-dasharray:none;paint-order:markers stroke fill"
             d="M 0,0 C 0.083,0.649 0.236,1.417 -0.221,1.971 -0.223,1.973 -0.22,1.975 -0.219,1.974 0.136,1.547 0.206,1.026 0.192,0.495 0.422,1.528 0.492,2.54 -0.667,2.813 -1.209,2.941 -1.655,2.767 -1.886,2.286 -1.722,2.574 -1.4,1.854 -1.27,1.799 -1.513,1.83 -1.454,1.633 -1.285,1.571 c 0.151,-0.054 0.363,-0.035 0.527,-0.07 0.379,-0.08 0.633,-0.253 0.661,-0.662 -0.02,0.149 -0.166,0.225 -0.314,0.202 0.009,-0.032 0.007,-0.056 0.015,-0.083 -0.086,0.133 -0.335,0.258 -0.478,0.18 -0.249,-0.137 0.118,-0.214 0.23,-0.278 0.317,-0.176 0.396,-0.435 0.477,-0.753 -0.064,0.15 -0.253,0.367 -0.357,0.2 -0.038,-0.059 0.187,-0.43 0.206,-0.522 0.069,-0.324 0.138,-0.715 0.152,-1.062 0.005,0.192 0.04,0.408 0.089,0.64 C -0.056,-0.424 -0.027,-0.212 0,0" /></g><g
           transform="translate(8.521,5.0508)"
           id="g56"
           style="stroke:#000000;stroke-opacity:1;stroke-width:0.075;stroke-miterlimit:4;stroke-dasharray:none;paint-order:markers stroke fill"><path
             id="path58"
             style="fill:#ffd700;fill-opacity:1;fill-rule:nonzero;stroke:#000000;stroke-opacity:1;stroke-width:0.075;stroke-miterlimit:4;stroke-dasharray:none;paint-order:markers stroke fill"
             d="M 0,0 C 0.006,0.165 0.28,0.075 0.41,0.174 0.542,0.275 0.569,0.405 0.614,0.548 0.712,0.858 0.924,1.097 1.139,1.363 1.112,1.341 1.089,1.314 1.05,1.302 0.395,1.094 -0.302,0.852 -0.845,0.38 c -0.493,-0.428 -0.898,-1.116 -0.947,-1.785 0.053,0.217 0.131,0.428 0.228,0.624 0.229,0.468 0.566,0.813 1.033,1.043 0.002,0.001 0.004,-0.002 0.002,-0.003 -0.476,-0.224 -0.819,-0.67 -0.998,-1.156 -0.058,-0.159 -0.101,-0.321 -0.136,-0.485 0.129,0.337 0.34,0.641 0.629,0.812 0.138,0.091 0.3,0.145 0.492,0.144 0.026,0.001 0.053,0.001 0.081,0.001 0.002,0 0.002,-0.004 0,-0.004 -0.028,0.002 -0.055,0.003 -0.081,0.003 -0.184,-0.007 -0.347,-0.059 -0.492,-0.144 -0.339,-0.226 -0.529,-0.68 -0.646,-1.109 0.117,0.149 0.36,0.273 0.415,0.416 -0.038,-0.004 -0.095,0.02 -0.151,-0.001 0.202,0.217 0.702,0.061 0.955,0.048 0.12,-0.006 0.336,-0.041 0.429,0.073 0.057,0.07 0.053,0.116 0.019,0.149 0.267,0.055 0.564,0.495 0.813,0.265 C 0.685,-0.279 0.422,-0.118 0,0" /></g><g
           transform="translate(14.0693,10.1802)"
           id="g60"
           style="stroke:#000000;stroke-opacity:1;stroke-width:0.075;stroke-miterlimit:4;stroke-dasharray:none;paint-order:markers stroke fill"><path
             id="path62"
             style="fill:#ffd700;fill-opacity:1;fill-rule:nonzero;stroke:#000000;stroke-opacity:1;stroke-width:0.075;stroke-miterlimit:4;stroke-dasharray:none;paint-order:markers stroke fill"
             d="m 0,0 c 0.151,-0.294 0.059,-0.606 -0.256,-0.707 -0.377,-0.121 -0.626,-0.117 -0.875,-0.463 -0.366,-0.51 -0.492,-1.056 -1.035,-1.298 0.192,0.016 0.385,0.043 0.573,0.088 0.685,0.163 1.274,0.562 1.662,1.153 0.002,0.002 0.005,0 0.003,-0.002 -0.394,-0.596 -0.894,-1.05 -1.591,-1.261 -0.069,-0.021 -0.138,-0.039 -0.209,-0.056 l 0.07,0.002 c 0.775,0.002 1.682,0.154 2,0.957 C 0.524,-1.126 0.529,-0.257 0,0" /></g><g
           transform="translate(13.0586,6.8564)"
           id="g64"
           style="stroke:#000000;stroke-opacity:1;stroke-width:0.075;stroke-miterlimit:4;stroke-dasharray:none;paint-order:markers stroke fill"><path
             id="path66"
             style="fill:#ffd700;fill-opacity:1;fill-rule:nonzero;stroke:#000000;stroke-opacity:1;stroke-width:0.075;stroke-miterlimit:4;stroke-dasharray:none;paint-order:markers stroke fill"
             d="m 0,0 c -0.375,0.565 -0.985,0.611 -1.604,0.561 0.024,-0.005 0.047,-0.01 0.071,-0.015 0.323,-0.078 0.655,-0.211 0.887,-0.458 0.24,-0.258 0.325,-0.568 0.356,-0.912 0,-0.002 -0.004,-0.002 -0.004,0 -0.02,0.377 -0.191,0.754 -0.502,0.977 -0.27,0.194 -0.599,0.289 -0.926,0.329 C -1.851,0.498 -1.979,0.505 -2.107,0.507 -2.326,0.482 -2.538,0.459 -2.731,0.458 L -2.915,0.367 c 0.235,0.064 0.515,-0.046 0.728,-0.119 0.164,-0.057 0.401,-0.326 0.575,-0.29 0.024,0.121 -0.068,0.276 -0.183,0.338 0.418,-0.154 0.56,-0.559 0.598,-1.006 0.02,-0.232 -0.008,-0.477 0.023,-0.71 0.009,-0.069 0.028,-0.288 0.113,-0.322 0.113,-0.044 0.176,0.066 0.162,0.178 0.015,-0.397 0.681,-0.308 0.393,-0.814 0.102,0.057 0.201,0.124 0.288,0.208 C 0.37,-1.601 0.452,-0.682 0,0" /></g><g
           transform="translate(11.333,13.8833)"
           id="g68"
           style="stroke:#000000;stroke-opacity:1;stroke-width:0.075;stroke-miterlimit:4;stroke-dasharray:none;paint-order:markers stroke fill"><path
             id="path70"
             style="fill:#ffd700;fill-opacity:1;fill-rule:nonzero;stroke:#000000;stroke-opacity:1;stroke-width:0.075;stroke-miterlimit:4;stroke-dasharray:none;paint-order:markers stroke fill"
             d="m 0,0 c -0.625,0.045 -1.034,-0.177 -1.161,-0.819 -0.1,-0.504 -0.04,-1.041 -0.138,-1.532 0.026,0.112 0.052,0.223 0.081,0.332 0.101,0.387 0.227,0.763 0.348,1.143 0.001,0.002 0.004,0.001 0.003,-0.001 -0.118,-0.379 -0.208,-0.771 -0.284,-1.16 -0.015,-0.076 -0.029,-0.153 -0.042,-0.23 0.186,0.298 0.585,0.605 0.527,0.894 -0.049,-0.024 -0.063,-0.005 -0.107,-0.056 0.209,0.273 0.477,0.359 0.477,0.747 0,0.281 -0.039,0.587 0.296,0.682" /></g><g
           transform="translate(7.3506,5.2295)"
           id="g72"
           style="stroke:#000000;stroke-opacity:1;stroke-width:0.075;stroke-miterlimit:4;stroke-dasharray:none;paint-order:markers stroke fill"><path
             id="path74"
             style="fill:#ffd700;fill-opacity:1;fill-rule:nonzero;stroke:#000000;stroke-opacity:1;stroke-width:0.075;stroke-miterlimit:4;stroke-dasharray:none;paint-order:markers stroke fill"
             d="M 0,0 C 0.394,0.48 0.845,0.97 1.447,1.174 1.704,1.262 1.969,1.342 2.239,1.376 2.373,1.393 2.51,1.389 2.641,1.355 2.723,1.335 2.791,1.29 2.854,1.236 2.913,1.185 2.934,1.118 2.916,1.035 2.875,0.842 2.671,1.006 2.862,1.016 2.883,1.017 2.883,1.049 2.862,1.048 2.603,1.035 2.816,0.854 2.896,0.929 3.003,1.024 2.96,1.173 2.879,1.262 2.757,1.396 2.553,1.423 2.383,1.424 1.968,1.427 1.495,1.269 1.133,1.075 0.664,0.824 0.345,0.391 -0.002,0.002 -0.003,0.001 -0.001,-0.002 0,0" /></g><g
           transform="translate(8.3135,9.4902)"
           id="g76"
           style="stroke:#000000;stroke-opacity:1;stroke-width:0.075;stroke-miterlimit:4;stroke-dasharray:none;paint-order:markers stroke fill"><path
             id="path78"
             style="fill:#ffd700;fill-opacity:1;fill-rule:nonzero;stroke:#000000;stroke-opacity:1;stroke-width:0.075;stroke-miterlimit:4;stroke-dasharray:none;paint-order:markers stroke fill"
             d="M 0,0 C 0.399,0.946 0.696,1.918 0.721,2.953 0.738,3.688 0.615,4.448 0.209,5.074 -0.141,5.614 -0.711,5.917 -1.358,5.831 -1.672,5.789 -1.981,5.686 -2.201,5.452 -2.343,5.301 -2.443,5.035 -2.188,4.936 -2.092,4.898 -1.921,4.921 -1.894,5.044 -1.862,5.188 -2.03,5.179 -2.123,5.16 -2.19,5.146 -2.162,5.038 -2.095,5.056 c 0.068,0.019 0.168,0.03 0.062,-0.042 -0.088,-0.06 -0.219,0.013 -0.251,0.103 -0.05,0.142 0.139,0.314 0.231,0.395 0.241,0.212 0.643,0.282 0.954,0.283 0.643,0 1.124,-0.46 1.402,-1.001 C 0.632,4.153 0.686,3.413 0.647,2.706 0.597,1.785 0.382,0.842 -0.003,0.001 -0.004,-0.001 -0.001,-0.002 0,0" /></g><g
           transform="translate(6.6641,8.689)"
           id="g80"
           style="stroke:#000000;stroke-opacity:1;stroke-width:0.075;stroke-miterlimit:4;stroke-dasharray:none;paint-order:markers stroke fill"><path
             id="path82"
             style="fill:#ffd700;fill-opacity:1;fill-rule:nonzero;stroke:#000000;stroke-opacity:1;stroke-width:0.075;stroke-miterlimit:4;stroke-dasharray:none;paint-order:markers stroke fill"
             d="m 0,0 c 0.107,0.281 0.173,0.567 0.212,0.865 0.031,0.243 0.057,0.501 -0.004,0.741 -0.065,0.258 -0.31,0.811 -0.657,0.73 -0.156,-0.037 -0.439,-0.45 -0.153,-0.487 0.16,-0.021 0.347,0.105 0.121,0.195 -0.006,0.002 -0.01,-0.007 -0.004,-0.01 0.281,-0.125 -0.197,-0.268 -0.207,-0.06 -0.007,0.141 0.168,0.31 0.3,0.319 0.147,0.011 0.264,-0.164 0.331,-0.27 C 0.088,1.785 0.17,1.511 0.177,1.232 0.187,0.828 0.151,0.378 -0.003,0 -0.004,-0.001 0,-0.002 0,0" /></g><g
           transform="translate(5.313,4.3594)"
           id="g84"
           style="stroke:#000000;stroke-opacity:1;stroke-width:0.075;stroke-miterlimit:4;stroke-dasharray:none;paint-order:markers stroke fill"><path
             id="path86"
             style="fill:#ffd700;fill-opacity:1;fill-rule:nonzero;stroke:#000000;stroke-opacity:1;stroke-width:0.075;stroke-miterlimit:4;stroke-dasharray:none;paint-order:markers stroke fill"
             d="m 0,0 c 0.084,0.369 -0.038,0.759 -0.198,1.091 -0.153,0.317 -0.441,0.612 -0.805,0.661 -0.161,0.022 -0.485,-0.145 -0.326,-0.338 0.103,-0.125 0.25,-0.102 0.211,0.077 0,0.002 -0.002,0.005 -0.005,0.005 C -1.17,1.507 -1.184,1.503 -1.22,1.471 -1.225,1.466 -1.217,1.459 -1.212,1.463 -1.15,1.518 -1.047,1.323 -1.206,1.351 -1.243,1.356 -1.275,1.386 -1.3,1.412 -1.428,1.547 -1.25,1.681 -1.127,1.715 -0.878,1.784 -0.573,1.537 -0.432,1.357 -0.164,1.013 0.126,0.452 -0.003,0.001 -0.004,-0.001 0,-0.002 0,0" /></g><g
           transform="translate(9.0918,8.7339)"
           id="g88"
           style="stroke:#000000;stroke-opacity:1;stroke-width:0.075;stroke-miterlimit:4;stroke-dasharray:none;paint-order:markers stroke fill"><path
             id="path90"
             style="fill:#ffd700;fill-opacity:1;fill-rule:nonzero;stroke:#000000;stroke-opacity:1;stroke-width:0.075;stroke-miterlimit:4;stroke-dasharray:none;paint-order:markers stroke fill"
             d="M 0,0 C 0.238,0.351 0.525,0.672 0.83,0.966 0.963,1.095 1.088,1.237 1.237,1.346 1.334,1.417 1.448,1.448 1.567,1.425 1.607,1.415 1.643,1.394 1.672,1.364 1.792,1.25 1.604,1.28 1.673,1.325 1.679,1.329 1.674,1.338 1.668,1.334 1.628,1.311 1.604,1.3 1.573,1.266 1.57,1.263 1.57,1.257 1.575,1.254 1.625,1.229 1.761,1.207 1.724,1.312 1.673,1.458 1.478,1.482 1.351,1.426 1.092,1.313 0.888,1.043 0.693,0.846 0.437,0.583 0.216,0.295 -0.003,0.002 -0.004,0 -0.001,-0.001 0,0" /></g><g
           transform="translate(8.061,5.8711)"
           id="g92"
           style="stroke:#000000;stroke-opacity:1;stroke-width:0.075;stroke-miterlimit:4;stroke-dasharray:none;paint-order:markers stroke fill"><path
             id="path94"
             style="fill:#ffd700;fill-opacity:1;fill-rule:nonzero;stroke:#000000;stroke-opacity:1;stroke-width:0.075;stroke-miterlimit:4;stroke-dasharray:none;paint-order:markers stroke fill"
             d="M 0,0 C 0.143,0.129 1.074,0.656 1.162,0.366 1.164,0.359 1.174,0.362 1.171,0.368 1.064,0.712 0.154,0.085 -0.002,0.002 -0.004,0.001 -0.002,-0.002 0,0" /></g></g></g></g></svg>
